<svg aria-labelledby="facebookTitleId facebookDescId" height="20px" width="20px" viewBox="0 0 21 20" version="1.1" role="img" xmlns="http://www.w3.org/2000/svg"><title id="facebookTitleId">Facebook logo</title><desc id="facebookDescId">Facebook logo</desc><g fill="none" fill-rule="evenodd"><path d="M18.977 20c.61 0 1.105-.494 1.105-1.104V1.104c0-.61-.495-1.104-1.105-1.104H1.173C.563 0 .068.494.068 1.104v17.792c0 .61.494 1.104 1.105 1.104h17.804z" fill="var(--crate-color-lavender)"/><path d="M13.872 20v-7.742h2.6l.39-3.017h-2.99V7.314c0-.873.242-1.468 1.496-1.468l1.599-.001V3.146a21.412 21.412 0 0 0-2.33-.119c-2.305 0-3.883 1.406-3.883 3.989V9.24H8.147v3.017h2.607V20h3.118z" fill="#FFF"/></g></svg>