<svg aria-labelledby="instagramTitleId instagramDescId" width="20px" height="20px" fill="var(--crate-color-lavender)" viewBox="0 0 24 25" role="img" xmlns="http://www.w3.org/2000/svg"><title id="instagramTitleId">Instagram logo</title><desc id="instagramDescId">Instagram logo</desc><path fill-rule="evenodd" clip-rule="evenodd" d="M11.9969 2.29639C9.28186 2.29639 8.94143 2.30798 7.87516 2.35699C6.81111 2.40588 6.0844 2.57615 5.44853 2.82512C4.79115 3.08246 4.23365 3.42682 3.67786 3.9867C3.1221 4.54662 2.78028 5.10825 2.52484 5.77051C2.2777 6.41111 2.10869 7.14321 2.06016 8.21515C2.01151 9.28934 2 9.6323 2 12.3675C2 15.1026 2.01151 15.4455 2.06016 16.5197C2.10869 17.5917 2.2777 18.3238 2.52484 18.9643C2.78028 19.6266 3.1221 20.1882 3.67786 20.7482C4.23365 21.308 4.79115 21.6524 5.44853 21.9098C6.0844 22.1587 6.81111 22.329 7.87516 22.3779C8.94143 22.4269 9.28186 22.4385 11.9969 22.4385C14.7118 22.4385 15.0523 22.4269 16.1185 22.3779C17.1826 22.329 17.9093 22.1587 18.5452 21.9098C19.2025 21.6524 19.76 21.308 20.3158 20.7482C20.8716 20.1882 21.2134 19.6266 21.4689 18.9643C21.716 18.3238 21.885 17.5917 21.9335 16.5197C21.9822 15.4455 21.9937 15.1026 21.9937 12.3675C21.9937 9.6323 21.9822 9.28934 21.9335 8.21515C21.885 7.14321 21.716 6.41111 21.4689 5.77051C21.2134 5.10825 20.8716 4.54662 20.3158 3.9867C19.76 3.42682 19.2025 3.08246 18.5452 2.82512C17.9093 2.57615 17.1826 2.40588 16.1185 2.35699C15.0523 2.30798 14.7118 2.29639 11.9969 2.29639ZM11.9969 4.11148C14.6661 4.11148 14.9823 4.12175 16.0364 4.17021C17.0111 4.21498 17.5404 4.37904 17.8927 4.51696C18.3593 4.69966 18.6923 4.91789 19.0421 5.27032C19.392 5.62272 19.6086 5.9582 19.79 6.42829C19.9269 6.78316 20.0897 7.3164 20.1342 8.29831C20.1823 9.36025 20.1925 9.67878 20.1925 12.3678C20.1925 15.0569 20.1823 15.3754 20.1342 16.4373C20.0897 17.4193 19.9269 17.9525 19.79 18.3074C19.6086 18.7775 19.392 19.1129 19.0421 19.4653C18.6923 19.8178 18.3593 20.036 17.8927 20.2187C17.5404 20.3566 17.0111 20.5207 16.0364 20.5655C14.9825 20.6139 14.6663 20.6242 11.9969 20.6242C9.32738 20.6242 9.01127 20.6139 7.95726 20.5655C6.98258 20.5207 6.45326 20.3566 6.10099 20.2187C5.63437 20.036 5.30135 19.8178 4.95155 19.4653C4.60175 19.1129 4.38508 18.7775 4.20373 18.3074C4.06683 17.9525 3.90397 17.4193 3.85953 16.4373C3.81143 15.3754 3.80123 15.0569 3.80123 12.3678C3.80123 9.67878 3.81143 9.36025 3.85953 8.29831C3.90397 7.3164 4.06683 6.78316 4.20373 6.42829C4.38508 5.9582 4.60171 5.62272 4.95155 5.27032C5.30135 4.91789 5.63437 4.69966 6.10099 4.51696C6.45326 4.37904 6.98258 4.21498 7.95726 4.17021C9.01139 4.12175 9.32758 4.11148 11.9969 4.11148Z" fill="var(--crate-color-lavender)"/><path fill-rule="evenodd" clip-rule="evenodd" d="M12 15.6349C10.2075 15.6349 8.75438 14.1709 8.75438 12.3651C8.75438 10.5592 10.2075 9.09531 12 9.09531C13.7925 9.09531 15.2456 10.5592 15.2456 12.3651C15.2456 14.1709 13.7925 15.6349 12 15.6349ZM12 7.32739C9.23856 7.32739 7 9.58257 7 12.3645C7 15.1464 9.23856 17.4016 12 17.4016C14.7614 17.4016 17 15.1464 17 12.3645C17 9.58257 14.7614 7.32739 12 7.32739Z" fill="var(--crate-color-lavender)"/><path fill-rule="evenodd" clip-rule="evenodd" d="M19 7.83117C19 8.66599 18.3284 9.34271 17.5 9.34271C16.6716 9.34271 16 8.66599 16 7.83117C16 6.99635 16.6716 6.31958 17.5 6.31958C18.3284 6.31958 19 6.99635 19 7.83117Z" fill="var(--crate-color-lavender)"/></svg>